G04 #@! TF.GenerationSoftware,KiCad,Pcbnew,5.1.8-db9833491~87~ubuntu18.04.1*
G04 #@! TF.CreationDate,2021-01-26T21:00:54+01:00*
G04 #@! TF.ProjectId,BPF_6Band,4250465f-3642-4616-9e64-2e6b69636164,rev?*
G04 #@! TF.SameCoordinates,Original*
G04 #@! TF.FileFunction,Soldermask,Top*
G04 #@! TF.FilePolarity,Negative*
%FSLAX46Y46*%
G04 Gerber Fmt 4.6, Leading zero omitted, Abs format (unit mm)*
G04 Created by KiCad (PCBNEW 5.1.8-db9833491~87~ubuntu18.04.1) date 2021-01-26 21:00:54*
%MOMM*%
%LPD*%
G01*
G04 APERTURE LIST*
%ADD10C,2.600000*%
%ADD11C,5.700000*%
%ADD12O,1.700000X2.000000*%
%ADD13C,1.524000*%
%ADD14R,1.500000X1.050000*%
%ADD15O,1.500000X1.050000*%
%ADD16C,2.000000*%
%ADD17R,2.000000X2.000000*%
%ADD18C,1.600000*%
%ADD19C,2.250000*%
%ADD20C,2.050000*%
%ADD21C,1.700000*%
G04 APERTURE END LIST*
D10*
X170281600Y-59566800D03*
X170281600Y-64566800D03*
X92049600Y-37926000D03*
X92049600Y-42926000D03*
D11*
X172000000Y-132000000D03*
X78000000Y-132000000D03*
X172000000Y-38000000D03*
X78000000Y-38000000D03*
D12*
X82256000Y-63624200D03*
G36*
G01*
X78906000Y-64374200D02*
X78906000Y-62874200D01*
G75*
G02*
X79156000Y-62624200I250000J0D01*
G01*
X80356000Y-62624200D01*
G75*
G02*
X80606000Y-62874200I0J-250000D01*
G01*
X80606000Y-64374200D01*
G75*
G02*
X80356000Y-64624200I-250000J0D01*
G01*
X79156000Y-64624200D01*
G75*
G02*
X78906000Y-64374200I0J250000D01*
G01*
G37*
D13*
X155194000Y-129311400D03*
X150114000Y-129311400D03*
X154940000Y-113207800D03*
X149860000Y-113207800D03*
X155016200Y-97917000D03*
X149936200Y-97917000D03*
X154254200Y-81203800D03*
X149174200Y-81203800D03*
X154660600Y-64795400D03*
X149580600Y-64795400D03*
X155041600Y-47904400D03*
X149961600Y-47904400D03*
X132638800Y-121437400D03*
X137718800Y-121437400D03*
X132689600Y-107162600D03*
X137769600Y-107162600D03*
X133019800Y-90551000D03*
X138099800Y-90551000D03*
X131521200Y-73583800D03*
X136601200Y-73583800D03*
X132892800Y-57988200D03*
X137972800Y-57988200D03*
X132943600Y-40995600D03*
X138023600Y-40995600D03*
X115316000Y-128905000D03*
X110236000Y-128905000D03*
X115163600Y-113106200D03*
X110083600Y-113106200D03*
X114985800Y-96748600D03*
X109905800Y-96748600D03*
X114833400Y-80340200D03*
X109753400Y-80340200D03*
X114782600Y-63830200D03*
X109702600Y-63830200D03*
X114554000Y-48260000D03*
X109474000Y-48260000D03*
G36*
G01*
X94241198Y-129152600D02*
X95141202Y-129152600D01*
G75*
G02*
X95391200Y-129402598I0J-249998D01*
G01*
X95391200Y-129927602D01*
G75*
G02*
X95141202Y-130177600I-249998J0D01*
G01*
X94241198Y-130177600D01*
G75*
G02*
X93991200Y-129927602I0J249998D01*
G01*
X93991200Y-129402598D01*
G75*
G02*
X94241198Y-129152600I249998J0D01*
G01*
G37*
G36*
G01*
X94241198Y-127327600D02*
X95141202Y-127327600D01*
G75*
G02*
X95391200Y-127577598I0J-249998D01*
G01*
X95391200Y-128102602D01*
G75*
G02*
X95141202Y-128352600I-249998J0D01*
G01*
X94241198Y-128352600D01*
G75*
G02*
X93991200Y-128102602I0J249998D01*
G01*
X93991200Y-127577598D01*
G75*
G02*
X94241198Y-127327600I249998J0D01*
G01*
G37*
G36*
G01*
X94291998Y-112922000D02*
X95192002Y-112922000D01*
G75*
G02*
X95442000Y-113171998I0J-249998D01*
G01*
X95442000Y-113697002D01*
G75*
G02*
X95192002Y-113947000I-249998J0D01*
G01*
X94291998Y-113947000D01*
G75*
G02*
X94042000Y-113697002I0J249998D01*
G01*
X94042000Y-113171998D01*
G75*
G02*
X94291998Y-112922000I249998J0D01*
G01*
G37*
G36*
G01*
X94291998Y-111097000D02*
X95192002Y-111097000D01*
G75*
G02*
X95442000Y-111346998I0J-249998D01*
G01*
X95442000Y-111872002D01*
G75*
G02*
X95192002Y-112122000I-249998J0D01*
G01*
X94291998Y-112122000D01*
G75*
G02*
X94042000Y-111872002I0J249998D01*
G01*
X94042000Y-111346998D01*
G75*
G02*
X94291998Y-111097000I249998J0D01*
G01*
G37*
G36*
G01*
X94037998Y-97047000D02*
X94938002Y-97047000D01*
G75*
G02*
X95188000Y-97296998I0J-249998D01*
G01*
X95188000Y-97822002D01*
G75*
G02*
X94938002Y-98072000I-249998J0D01*
G01*
X94037998Y-98072000D01*
G75*
G02*
X93788000Y-97822002I0J249998D01*
G01*
X93788000Y-97296998D01*
G75*
G02*
X94037998Y-97047000I249998J0D01*
G01*
G37*
G36*
G01*
X94037998Y-95222000D02*
X94938002Y-95222000D01*
G75*
G02*
X95188000Y-95471998I0J-249998D01*
G01*
X95188000Y-95997002D01*
G75*
G02*
X94938002Y-96247000I-249998J0D01*
G01*
X94037998Y-96247000D01*
G75*
G02*
X93788000Y-95997002I0J249998D01*
G01*
X93788000Y-95471998D01*
G75*
G02*
X94037998Y-95222000I249998J0D01*
G01*
G37*
G36*
G01*
X94672998Y-81248200D02*
X95573002Y-81248200D01*
G75*
G02*
X95823000Y-81498198I0J-249998D01*
G01*
X95823000Y-82023202D01*
G75*
G02*
X95573002Y-82273200I-249998J0D01*
G01*
X94672998Y-82273200D01*
G75*
G02*
X94423000Y-82023202I0J249998D01*
G01*
X94423000Y-81498198D01*
G75*
G02*
X94672998Y-81248200I249998J0D01*
G01*
G37*
G36*
G01*
X94672998Y-79423200D02*
X95573002Y-79423200D01*
G75*
G02*
X95823000Y-79673198I0J-249998D01*
G01*
X95823000Y-80198202D01*
G75*
G02*
X95573002Y-80448200I-249998J0D01*
G01*
X94672998Y-80448200D01*
G75*
G02*
X94423000Y-80198202I0J249998D01*
G01*
X94423000Y-79673198D01*
G75*
G02*
X94672998Y-79423200I249998J0D01*
G01*
G37*
G36*
G01*
X94266598Y-65449400D02*
X95166602Y-65449400D01*
G75*
G02*
X95416600Y-65699398I0J-249998D01*
G01*
X95416600Y-66224402D01*
G75*
G02*
X95166602Y-66474400I-249998J0D01*
G01*
X94266598Y-66474400D01*
G75*
G02*
X94016600Y-66224402I0J249998D01*
G01*
X94016600Y-65699398D01*
G75*
G02*
X94266598Y-65449400I249998J0D01*
G01*
G37*
G36*
G01*
X94266598Y-63624400D02*
X95166602Y-63624400D01*
G75*
G02*
X95416600Y-63874398I0J-249998D01*
G01*
X95416600Y-64399402D01*
G75*
G02*
X95166602Y-64649400I-249998J0D01*
G01*
X94266598Y-64649400D01*
G75*
G02*
X94016600Y-64399402I0J249998D01*
G01*
X94016600Y-63874398D01*
G75*
G02*
X94266598Y-63624400I249998J0D01*
G01*
G37*
G36*
G01*
X94571398Y-53740000D02*
X95471402Y-53740000D01*
G75*
G02*
X95721400Y-53989998I0J-249998D01*
G01*
X95721400Y-54515002D01*
G75*
G02*
X95471402Y-54765000I-249998J0D01*
G01*
X94571398Y-54765000D01*
G75*
G02*
X94321400Y-54515002I0J249998D01*
G01*
X94321400Y-53989998D01*
G75*
G02*
X94571398Y-53740000I249998J0D01*
G01*
G37*
G36*
G01*
X94571398Y-51915000D02*
X95471402Y-51915000D01*
G75*
G02*
X95721400Y-52164998I0J-249998D01*
G01*
X95721400Y-52690002D01*
G75*
G02*
X95471402Y-52940000I-249998J0D01*
G01*
X94571398Y-52940000D01*
G75*
G02*
X94321400Y-52690002I0J249998D01*
G01*
X94321400Y-52164998D01*
G75*
G02*
X94571398Y-51915000I249998J0D01*
G01*
G37*
D14*
X93522800Y-125349000D03*
D15*
X93522800Y-122809000D03*
X93522800Y-124079000D03*
D14*
X93751400Y-108661200D03*
D15*
X93751400Y-106121200D03*
X93751400Y-107391200D03*
D14*
X93395800Y-92964000D03*
D15*
X93395800Y-90424000D03*
X93395800Y-91694000D03*
D14*
X94361000Y-77647800D03*
D15*
X94361000Y-75107800D03*
X94361000Y-76377800D03*
D14*
X93980000Y-61239400D03*
D15*
X93980000Y-58699400D03*
X93980000Y-59969400D03*
D14*
X93802200Y-50012600D03*
D15*
X93802200Y-47472600D03*
X93802200Y-48742600D03*
D16*
X147156800Y-124282200D03*
X144576800Y-124282200D03*
X147156800Y-109601000D03*
X144576800Y-109601000D03*
X147131400Y-93243400D03*
X144551400Y-93243400D03*
X146623400Y-76682600D03*
X144043400Y-76682600D03*
X146521800Y-59867800D03*
X143941800Y-59867800D03*
X146902800Y-43688000D03*
X144322800Y-43688000D03*
X130189600Y-124383800D03*
X127609600Y-124383800D03*
X130443600Y-109550200D03*
X127863600Y-109550200D03*
X130367400Y-93040200D03*
X127787400Y-93040200D03*
X129402200Y-76631800D03*
X126822200Y-76631800D03*
X130418200Y-60121800D03*
X127838200Y-60121800D03*
X130494400Y-43738800D03*
X127914400Y-43738800D03*
X120334400Y-124968000D03*
X117754400Y-124968000D03*
X120182000Y-109651800D03*
X117602000Y-109651800D03*
X120359800Y-93192600D03*
X117779800Y-93192600D03*
X119902600Y-76682600D03*
X117322600Y-76682600D03*
X120055000Y-60223400D03*
X117475000Y-60223400D03*
X119978800Y-44043600D03*
X117398800Y-44043600D03*
X158699200Y-130835400D03*
X163779200Y-130835400D03*
X158699200Y-123215400D03*
D17*
X158699200Y-120675400D03*
D16*
X163779200Y-123215400D03*
X163779200Y-120675400D03*
X158470600Y-114706400D03*
X163550600Y-114706400D03*
X158470600Y-107086400D03*
D17*
X158470600Y-104546400D03*
D16*
X163550600Y-107086400D03*
X163550600Y-104546400D03*
X158064200Y-99034600D03*
X163144200Y-99034600D03*
X158064200Y-91414600D03*
D17*
X158064200Y-88874600D03*
D16*
X163144200Y-91414600D03*
X163144200Y-88874600D03*
X158115000Y-82981800D03*
X163195000Y-82981800D03*
X158115000Y-75361800D03*
D17*
X158115000Y-72821800D03*
D16*
X163195000Y-75361800D03*
X163195000Y-72821800D03*
X158369000Y-66217800D03*
X163449000Y-66217800D03*
X158369000Y-58597800D03*
D17*
X158369000Y-56057800D03*
D16*
X163449000Y-58597800D03*
X163449000Y-56057800D03*
X157734000Y-49428400D03*
X162814000Y-49428400D03*
X157734000Y-41808400D03*
D17*
X157734000Y-39268400D03*
D16*
X162814000Y-41808400D03*
X162814000Y-39268400D03*
X106375200Y-120065800D03*
X101295200Y-120065800D03*
X106375200Y-127685800D03*
D17*
X106375200Y-130225800D03*
D16*
X101295200Y-127685800D03*
X101295200Y-130225800D03*
X106527600Y-104114600D03*
X101447600Y-104114600D03*
X106527600Y-111734600D03*
D17*
X106527600Y-114274600D03*
D16*
X101447600Y-111734600D03*
X101447600Y-114274600D03*
X106705400Y-87858600D03*
X101625400Y-87858600D03*
X106705400Y-95478600D03*
D17*
X106705400Y-98018600D03*
D16*
X101625400Y-95478600D03*
X101625400Y-98018600D03*
X106426000Y-71983600D03*
X101346000Y-71983600D03*
X106426000Y-79603600D03*
D17*
X106426000Y-82143600D03*
D16*
X101346000Y-79603600D03*
X101346000Y-82143600D03*
X106451400Y-55295800D03*
X101371400Y-55295800D03*
X106451400Y-62915800D03*
D17*
X106451400Y-65455800D03*
D16*
X101371400Y-62915800D03*
X101371400Y-65455800D03*
X106426000Y-39065200D03*
X101346000Y-39065200D03*
X106426000Y-46685200D03*
D17*
X106426000Y-49225200D03*
D16*
X101346000Y-46685200D03*
X101346000Y-49225200D03*
D18*
X150825200Y-120980200D03*
X153325200Y-120980200D03*
X153314400Y-124739400D03*
X150814400Y-124739400D03*
X150916000Y-105892600D03*
X153416000Y-105892600D03*
X153477600Y-109042200D03*
X150977600Y-109042200D03*
X151144600Y-89687400D03*
X153644600Y-89687400D03*
X153757000Y-93167200D03*
X151257000Y-93167200D03*
X150179400Y-73406000D03*
X152679400Y-73406000D03*
X152639400Y-76682600D03*
X150139400Y-76682600D03*
X150611200Y-57048400D03*
X153111200Y-57048400D03*
X153122000Y-60147200D03*
X150622000Y-60147200D03*
X151220800Y-39878000D03*
X153720800Y-39878000D03*
X153630000Y-43535600D03*
X151130000Y-43535600D03*
X140970000Y-124851800D03*
X140970000Y-122351800D03*
X140309600Y-109234600D03*
X140309600Y-111734600D03*
X140589000Y-92419800D03*
X140589000Y-94919800D03*
X139573000Y-75401800D03*
X139573000Y-77901800D03*
X140589000Y-58282200D03*
X140589000Y-60782200D03*
X141071600Y-42204000D03*
X141071600Y-44704000D03*
X133796400Y-126212600D03*
X136296400Y-126212600D03*
X134050400Y-111785400D03*
X136550400Y-111785400D03*
X133923400Y-95732600D03*
X136423400Y-95732600D03*
X132551800Y-78155800D03*
X135051800Y-78155800D03*
X134050400Y-62230000D03*
X136550400Y-62230000D03*
X133593200Y-45821600D03*
X136093200Y-45821600D03*
X123698000Y-126198000D03*
X123698000Y-123698000D03*
X123748800Y-108472600D03*
X123748800Y-110972600D03*
X124079000Y-92064200D03*
X124079000Y-94564200D03*
X123190000Y-77684000D03*
X123190000Y-75184000D03*
X123672600Y-61301000D03*
X123672600Y-58801000D03*
X124104400Y-42508800D03*
X124104400Y-45008800D03*
X111342800Y-121285000D03*
X113842800Y-121285000D03*
X113752000Y-124460000D03*
X111252000Y-124460000D03*
X111139600Y-105740200D03*
X113639600Y-105740200D03*
X113599600Y-109143800D03*
X111099600Y-109143800D03*
X111215800Y-89382600D03*
X113715800Y-89382600D03*
X113625000Y-92532200D03*
X111125000Y-92532200D03*
X111139600Y-73025000D03*
X113639600Y-73025000D03*
X113701200Y-76174600D03*
X111201200Y-76174600D03*
X111063400Y-56743600D03*
X113563400Y-56743600D03*
X113523400Y-59664600D03*
X111023400Y-59664600D03*
X110682400Y-40589200D03*
X113182400Y-40589200D03*
X112939200Y-43840400D03*
X110439200Y-43840400D03*
D19*
X167995600Y-53009800D03*
X167995600Y-47929800D03*
X173075600Y-47929800D03*
X173075600Y-53009800D03*
D20*
X170535600Y-50469800D03*
D19*
X78841600Y-46304200D03*
X83921600Y-46304200D03*
X83921600Y-51384200D03*
X78841600Y-51384200D03*
D20*
X81381600Y-48844200D03*
D21*
X82245200Y-104673400D03*
X82245200Y-102133400D03*
X82245200Y-99593400D03*
X82245200Y-97053400D03*
X82245200Y-94513400D03*
X82245200Y-91973400D03*
X82245200Y-89433400D03*
X79705200Y-104673400D03*
X79705200Y-102133400D03*
X79705200Y-99593400D03*
X79705200Y-97053400D03*
X79705200Y-94513400D03*
X79705200Y-91973400D03*
G36*
G01*
X78855200Y-90033400D02*
X78855200Y-88833400D01*
G75*
G02*
X79105200Y-88583400I250000J0D01*
G01*
X80305200Y-88583400D01*
G75*
G02*
X80555200Y-88833400I0J-250000D01*
G01*
X80555200Y-90033400D01*
G75*
G02*
X80305200Y-90283400I-250000J0D01*
G01*
X79105200Y-90283400D01*
G75*
G02*
X78855200Y-90033400I0J250000D01*
G01*
G37*
G36*
G01*
X93083400Y-80398200D02*
X92133400Y-80398200D01*
G75*
G02*
X91883400Y-80148200I0J250000D01*
G01*
X91883400Y-79648200D01*
G75*
G02*
X92133400Y-79398200I250000J0D01*
G01*
X93083400Y-79398200D01*
G75*
G02*
X93333400Y-79648200I0J-250000D01*
G01*
X93333400Y-80148200D01*
G75*
G02*
X93083400Y-80398200I-250000J0D01*
G01*
G37*
G36*
G01*
X93083400Y-82298200D02*
X92133400Y-82298200D01*
G75*
G02*
X91883400Y-82048200I0J250000D01*
G01*
X91883400Y-81548200D01*
G75*
G02*
X92133400Y-81298200I250000J0D01*
G01*
X93083400Y-81298200D01*
G75*
G02*
X93333400Y-81548200I0J-250000D01*
G01*
X93333400Y-82048200D01*
G75*
G02*
X93083400Y-82298200I-250000J0D01*
G01*
G37*
G36*
G01*
X92778600Y-64624800D02*
X91828600Y-64624800D01*
G75*
G02*
X91578600Y-64374800I0J250000D01*
G01*
X91578600Y-63874800D01*
G75*
G02*
X91828600Y-63624800I250000J0D01*
G01*
X92778600Y-63624800D01*
G75*
G02*
X93028600Y-63874800I0J-250000D01*
G01*
X93028600Y-64374800D01*
G75*
G02*
X92778600Y-64624800I-250000J0D01*
G01*
G37*
G36*
G01*
X92778600Y-66524800D02*
X91828600Y-66524800D01*
G75*
G02*
X91578600Y-66274800I0J250000D01*
G01*
X91578600Y-65774800D01*
G75*
G02*
X91828600Y-65524800I250000J0D01*
G01*
X92778600Y-65524800D01*
G75*
G02*
X93028600Y-65774800I0J-250000D01*
G01*
X93028600Y-66274800D01*
G75*
G02*
X92778600Y-66524800I-250000J0D01*
G01*
G37*
G36*
G01*
X92778600Y-52890000D02*
X91828600Y-52890000D01*
G75*
G02*
X91578600Y-52640000I0J250000D01*
G01*
X91578600Y-52140000D01*
G75*
G02*
X91828600Y-51890000I250000J0D01*
G01*
X92778600Y-51890000D01*
G75*
G02*
X93028600Y-52140000I0J-250000D01*
G01*
X93028600Y-52640000D01*
G75*
G02*
X92778600Y-52890000I-250000J0D01*
G01*
G37*
G36*
G01*
X92778600Y-54790000D02*
X91828600Y-54790000D01*
G75*
G02*
X91578600Y-54540000I0J250000D01*
G01*
X91578600Y-54040000D01*
G75*
G02*
X91828600Y-53790000I250000J0D01*
G01*
X92778600Y-53790000D01*
G75*
G02*
X93028600Y-54040000I0J-250000D01*
G01*
X93028600Y-54540000D01*
G75*
G02*
X92778600Y-54790000I-250000J0D01*
G01*
G37*
G36*
G01*
X92600800Y-128328000D02*
X91650800Y-128328000D01*
G75*
G02*
X91400800Y-128078000I0J250000D01*
G01*
X91400800Y-127578000D01*
G75*
G02*
X91650800Y-127328000I250000J0D01*
G01*
X92600800Y-127328000D01*
G75*
G02*
X92850800Y-127578000I0J-250000D01*
G01*
X92850800Y-128078000D01*
G75*
G02*
X92600800Y-128328000I-250000J0D01*
G01*
G37*
G36*
G01*
X92600800Y-130228000D02*
X91650800Y-130228000D01*
G75*
G02*
X91400800Y-129978000I0J250000D01*
G01*
X91400800Y-129478000D01*
G75*
G02*
X91650800Y-129228000I250000J0D01*
G01*
X92600800Y-129228000D01*
G75*
G02*
X92850800Y-129478000I0J-250000D01*
G01*
X92850800Y-129978000D01*
G75*
G02*
X92600800Y-130228000I-250000J0D01*
G01*
G37*
G36*
G01*
X92600800Y-112097400D02*
X91650800Y-112097400D01*
G75*
G02*
X91400800Y-111847400I0J250000D01*
G01*
X91400800Y-111347400D01*
G75*
G02*
X91650800Y-111097400I250000J0D01*
G01*
X92600800Y-111097400D01*
G75*
G02*
X92850800Y-111347400I0J-250000D01*
G01*
X92850800Y-111847400D01*
G75*
G02*
X92600800Y-112097400I-250000J0D01*
G01*
G37*
G36*
G01*
X92600800Y-113997400D02*
X91650800Y-113997400D01*
G75*
G02*
X91400800Y-113747400I0J250000D01*
G01*
X91400800Y-113247400D01*
G75*
G02*
X91650800Y-112997400I250000J0D01*
G01*
X92600800Y-112997400D01*
G75*
G02*
X92850800Y-113247400I0J-250000D01*
G01*
X92850800Y-113747400D01*
G75*
G02*
X92600800Y-113997400I-250000J0D01*
G01*
G37*
G36*
G01*
X92499200Y-96146200D02*
X91549200Y-96146200D01*
G75*
G02*
X91299200Y-95896200I0J250000D01*
G01*
X91299200Y-95396200D01*
G75*
G02*
X91549200Y-95146200I250000J0D01*
G01*
X92499200Y-95146200D01*
G75*
G02*
X92749200Y-95396200I0J-250000D01*
G01*
X92749200Y-95896200D01*
G75*
G02*
X92499200Y-96146200I-250000J0D01*
G01*
G37*
G36*
G01*
X92499200Y-98046200D02*
X91549200Y-98046200D01*
G75*
G02*
X91299200Y-97796200I0J250000D01*
G01*
X91299200Y-97296200D01*
G75*
G02*
X91549200Y-97046200I250000J0D01*
G01*
X92499200Y-97046200D01*
G75*
G02*
X92749200Y-97296200I0J-250000D01*
G01*
X92749200Y-97796200D01*
G75*
G02*
X92499200Y-98046200I-250000J0D01*
G01*
G37*
M02*
