M48
; DRILL file {KiCad 5.1.8-db9833491~87~ubuntu18.04.1} date Tue Jan 26 21:00:59 2021
; FORMAT={2:4/ absolute / inch / suppress leading zeros}
; #@! TF.CreationDate,2021-01-26T21:00:59+01:00
; #@! TF.GenerationSoftware,Kicad,Pcbnew,5.1.8-db9833491~87~ubuntu18.04.1
FMAT,2
INCH,TZ
T1C0.0157
T2C0.0295
T3C0.0300
T4C0.0315
T5C0.0394
T6C0.0512
T7C0.0591
T8C0.0669
T9C0.1260
%
G90
G05
T1
X32200Y-44700
X33200Y-45200
T2
X36770Y-35600
X36770Y-36100
X36770Y-36600
X37000Y-23110
X37000Y-23610
X37000Y-24110
X36930Y-18690
X36930Y-19190
X36930Y-19690
X36820Y-48350
X36820Y-48850
X36820Y-49350
X37150Y-29570
X37150Y-30070
X37150Y-30570
X36910Y-41780
X36910Y-42280
X36910Y-42780
T3
X43270Y-38090
X45270Y-38090
X52320Y-22830
X54320Y-22830
X52370Y-35650
X54370Y-35650
X43100Y-19000
X45100Y-19000
X52340Y-16140
X54340Y-16140
X52240Y-42190
X54240Y-42190
X43400Y-50750
X45400Y-50750
X43340Y-44530
X45340Y-44530
X43210Y-31630
X45210Y-31630
X58890Y-25510
X60890Y-25510
X59100Y-50910
X61100Y-50910
X51780Y-28970
X53780Y-28970
X59040Y-18860
X61040Y-18860
X58730Y-31970
X60730Y-31970
X43190Y-25130
X45190Y-25130
X52220Y-47810
X54220Y-47810
X59000Y-44570
X61000Y-44570
X59030Y-38550
X61030Y-38550
T4
X43750Y-36430
X44734Y-36430
X52726Y-37690
X53710Y-37690
X52186Y-30770
X53170Y-30770
X59536Y-15700
X60520Y-15700
X55500Y-48170
X55500Y-49154
X59110Y-30190
X60094Y-30190
X43800Y-49000
X44784Y-49000
X43780Y-29990
X44764Y-29990
X48720Y-42706
X48720Y-43690
X43786Y-35190
X44770Y-35190
X48850Y-36246
X48850Y-37230
X54950Y-29686
X54950Y-30670
X43756Y-28750
X44740Y-28750
X43726Y-22340
X44710Y-22340
X43710Y-23490
X44694Y-23490
X55540Y-16616
X55540Y-17600
X52776Y-24500
X53760Y-24500
X59380Y-47630
X60364Y-47630
X55350Y-22946
X55350Y-23930
X52676Y-49690
X53660Y-49690
X55240Y-43006
X55240Y-43990
X43480Y-17260
X44464Y-17260
X59296Y-22460
X60280Y-22460
X52776Y-44010
X53760Y-44010
X43756Y-41630
X44740Y-41630
X59376Y-49110
X60360Y-49110
X59416Y-41690
X60400Y-41690
X48690Y-23150
X48690Y-24134
X59506Y-35310
X60490Y-35310
X48860Y-16736
X48860Y-17720
X52596Y-18040
X53580Y-18040
X43836Y-47750
X44820Y-47750
X55350Y-36386
X55350Y-37370
X59500Y-17140
X60484Y-17140
X59300Y-23680
X60284Y-23680
X43576Y-15980
X44560Y-15980
X59550Y-36680
X60534Y-36680
X59440Y-42930
X60424Y-42930
X48700Y-48700
X48700Y-49684
X43740Y-42970
X44724Y-42970
X59126Y-28900
X60110Y-28900
X48500Y-29600
X48500Y-30584
T5
X50330Y-23670
X51346Y-23670
X46300Y-43170
X47316Y-43170
X46220Y-17340
X47236Y-17340
X62100Y-15460
X62100Y-16460
X62100Y-19460
X64100Y-15460
X64100Y-16460
X64100Y-19460
X62350Y-22070
X62350Y-23070
X62350Y-26070
X64350Y-22070
X64350Y-23070
X64350Y-26070
X56920Y-48930
X57936Y-48930
X62480Y-47510
X62480Y-48510
X62480Y-51510
X64480Y-47510
X64480Y-48510
X64480Y-51510
X62390Y-41160
X62390Y-42160
X62390Y-45160
X64390Y-41160
X64390Y-42160
X64390Y-45160
X56910Y-36710
X57926Y-36710
X50310Y-36630
X51326Y-36630
X56670Y-23570
X57686Y-23570
X40010Y-34590
X40010Y-37590
X40010Y-38590
X42010Y-34590
X42010Y-37590
X42010Y-38590
X56820Y-17200
X57836Y-17200
X56920Y-43150
X57936Y-43150
X46370Y-36690
X47386Y-36690
X39900Y-28340
X39900Y-31340
X39900Y-32340
X41900Y-28340
X41900Y-31340
X41900Y-32340
X39880Y-47270
X39880Y-50270
X39880Y-51270
X41880Y-47270
X41880Y-50270
X41880Y-51270
X46360Y-49200
X47376Y-49200
X46250Y-23710
X47266Y-23710
X62250Y-28670
X62250Y-29670
X62250Y-32670
X64250Y-28670
X64250Y-29670
X64250Y-32670
X50240Y-48970
X51256Y-48970
X50340Y-43130
X51356Y-43130
X31400Y-25049
X32384Y-25049
X39900Y-15380
X39900Y-18380
X39900Y-19380
X41900Y-15380
X41900Y-18380
X41900Y-19380
X50360Y-17220
X51376Y-17220
X31380Y-35210
X31380Y-36210
X31380Y-37210
X31380Y-38210
X31380Y-39210
X31380Y-40210
X31380Y-41210
X32380Y-35210
X32380Y-36210
X32380Y-37210
X32380Y-38210
X32380Y-39210
X32380Y-40210
X32380Y-41210
X49930Y-30170
X50946Y-30170
X46190Y-30190
X47206Y-30190
X56710Y-30190
X57726Y-30190
X39910Y-21770
X39910Y-24770
X39910Y-25770
X41910Y-21770
X41910Y-24770
X41910Y-25770
X39940Y-40990
X39940Y-43990
X39940Y-44990
X41940Y-40990
X41940Y-43990
X41940Y-44990
X62230Y-34990
X62230Y-35990
X62230Y-38990
X64230Y-34990
X64230Y-35990
X64230Y-38990
T6
X36240Y-14931
X36240Y-16900
X67040Y-23451
X67040Y-25420
T7
X32040Y-19230
X67140Y-19870
T8
X31040Y-18230
X31040Y-20230
X33040Y-18230
X33040Y-20230
X66140Y-18870
X66140Y-20870
X68140Y-18870
X68140Y-20870
T9
X67717Y-14961
X67717Y-51969
X30709Y-51969
X30709Y-14961
T0
M30
